<?xml version="1.0" encoding="utf-8"?>
<!-- Generator: Adobe Illustrator 19.1.0, SVG Export Plug-In . SVG Version: 6.00 Build 0)  -->
<!DOCTYPE svg PUBLIC "-//W3C//DTD SVG 1.1//EN" "http://www.w3.org/Graphics/SVG/1.1/DTD/svg11.dtd">
<svg version="1.1" id="Layer_1" xmlns="http://www.w3.org/2000/svg" xmlns:xlink="http://www.w3.org/1999/xlink" x="0px" y="0px"
	 viewBox="-321 195 380 380" style="enable-background:new -321 195 380 380;" xml:space="preserve">
<style type="text/css">
	.st0{fill:#C1C1C1;}
	.st1{fill:#A5A5A5;}
	.st2{fill:#666666;}
</style>
<path class="st0" d="M-110.1,567.8l0.6,5.7l-2.6,0.3l-0.6-5.7L-110.1,567.8z M-150.6,197.4l0.6,5.7l-2.6,0.3l-0.6-5.7L-150.6,197.4z
	 M-92.6,564.9l1.2,5.6l-2.5,0.5l-1.2-5.6L-92.6,564.9z M-168.7,200.1l1.2,5.6l-2.5,0.5l-1.2-5.6L-168.7,200.1z M-73.3,559.6l1.8,5.4
	l-2.4,0.8l-1.8-5.4L-73.3,559.6z M-188.6,205.3l1.8,5.5l-2.4,0.8l-1.8-5.5L-188.6,205.3L-188.6,205.3z M-56.7,553.2l2.3,5.2l-2.4,1
	l-2.3-5.2L-56.7,553.2z M-205.8,211.7l2.3,5.3l-2.4,1l-2.3-5.3L-205.8,211.7z M-205.9,553.2l2.4,1l-2.3,5.2l-2.4-1L-205.9,553.2z
	 M-56.8,211.7l2.4,1l-2.3,5.3l-2.4-1L-56.8,211.7z M-189.3,559.6l2.4,0.8l-1.8,5.4l-2.4-0.8L-189.3,559.6z M-74,205.3l2.4,0.8
	l-1.8,5.5l-2.4-0.8L-74,205.3z M-170.1,564.9l2.5,0.5l-1.2,5.6l-2.5-0.5L-170.1,564.9z M-93.9,200.2l2.5,0.5l-1.2,5.6l-2.5-0.5
	L-93.9,200.2L-93.9,200.2z M-152.6,567.8l2.6,0.3l-0.6,5.7l-2.6-0.3L-152.6,567.8z M-112,197.4l2.6,0.3l-0.6,5.7l-2.6-0.3
	L-112,197.4z M-280,493.1l1.5,2.1l-4.6,3.4l-1.5-2.1L-280,493.1z M20.4,272.6l1.5,2.1l-4.6,3.4l-1.5-2.1L20.4,272.6L20.4,272.6z
	 M-268.8,506.9l1.7,1.9l-4.3,3.8l-1.7-1.9L-268.8,506.9z M8.8,258.5l1.7,1.9l-4.3,3.8l-1.7-1.9L8.8,258.5L8.8,258.5z M-254.8,521.2
	l1.9,1.7l-3.8,4.2l-1.9-1.7L-254.8,521.2z M-5.9,244l1.9,1.7l-3.9,4.3l-1.9-1.7L-5.9,244z M-241.1,532.5l2.1,1.5l-3.4,4.6l-2.1-1.5
	L-241.1,532.5L-241.1,532.5z M-20.2,232.5l2.1,1.5l-3.4,4.6l-2.1-1.5L-20.2,232.5z M-313.7,404.9l0.3,2.6l-5.7,0.6l-0.3-2.6
	L-313.7,404.9z M56.5,363l0.3,2.6l-5.7,0.6l-0.3-2.6L56.5,363L56.5,363z M-311,422.5l0.5,2.5l-5.6,1.2l-0.5-2.5L-311,422.5z
	 M53.4,345l0.5,2.5l-5.6,1.2l-0.5-2.5L53.4,345z M-305.9,441.8l0.8,2.4l-5.4,1.8l-0.8-2.4L-305.9,441.8L-305.9,441.8z M47.9,325.2
	l0.8,2.4l-5.5,1.8l-0.8-2.4L47.9,325.2L47.9,325.2z M-299.7,458.4l1,2.4l-5.2,2.3l-1-2.4L-299.7,458.4z M41.2,308.1l1,2.4l-5.3,2.3
	l-1-2.4L41.2,308.1z M-313.7,404.9l0.3,2.6l-5.7,0.6l-0.3-2.6L-313.7,404.9z M56.5,363l0.3,2.6l-5.7,0.6l-0.3-2.6L56.5,363L56.5,363
	z M-311,422.5l0.5,2.5l-5.6,1.2l-0.5-2.5L-311,422.5z M53.4,345l0.5,2.5l-5.6,1.2l-0.5-2.5L53.4,345z M-305.9,441.8l0.8,2.4
	l-5.4,1.8l-0.8-2.4L-305.9,441.8L-305.9,441.8z M47.9,325.2l0.8,2.4l-5.5,1.8l-0.8-2.4L47.9,325.2L47.9,325.2z M-299.7,458.4l1,2.4
	l-5.2,2.3l-1-2.4L-299.7,458.4z M41.2,308.1l1,2.4l-5.3,2.3l-1-2.4L41.2,308.1z M-241.8,232l3.4,4.6l-2.1,1.5l-3.4-4.6L-241.8,232z
	 M-22.2,532.9l3.4,4.7l-2.1,1.5l-3.4-4.7L-22.2,532.9L-22.2,532.9z M-256.1,243.4l3.8,4.3l-1.9,1.7l-3.8-4.3L-256.1,243.4z
	 M-8.4,521.7l3.8,4.3l-1.9,1.7l-3.8-4.3L-8.4,521.7z M-270.8,257.8l4.2,3.8l-1.7,1.9l-4.2-3.8L-270.8,257.8z M5.6,507.5l4.3,3.9
	l-1.7,1.9l-4.3-3.9L5.6,507.5z M-282.5,271.9l4.6,3.4l-1.5,2.1l-4.6-3.4L-282.5,271.9z M16.8,493.7l4.6,3.4l-1.5,2.1l-4.6-3.4
	L16.8,493.7z M-303.9,308.3l5.2,2.3l-1,2.4l-5.2-2.3L-303.9,308.3z M37.1,458.2l5.3,2.3l-1,2.4l-5.3-2.3L37.1,458.2L37.1,458.2z
	 M-310.6,325.4l5.4,1.8l-0.8,2.4l-5.4-1.8L-310.6,325.4z M43.3,441.5l5.5,1.8l-0.8,2.4l-5.5-1.8L43.3,441.5z M-316.1,345.2l5.6,1.2
	l-0.5,2.5l-5.6-1.2L-316.1,345.2z M48.3,422.3l5.6,1.2l-0.5,2.5l-5.6-1.2L48.3,422.3z M-319.1,363.2l5.7,0.6l-0.3,2.6l-5.7-0.6
	L-319.1,363.2z M51.1,404.7l5.7,0.6l-0.3,2.6l-5.7-0.6L51.1,404.7L51.1,404.7z"/>
<g>
	<path class="st1" d="M-138.9,217.6v-15.7h-5.7v-2c0.8,0,1.4-0.1,2.1-0.2s1.3-0.3,1.9-0.7c0.6-0.3,1.1-0.8,1.4-1.3
		c0.4-0.6,0.7-1.3,0.8-2h2v21.9H-138.9z M-130.6,200.3c0.3-1,0.8-1.7,1.3-2.4s1.3-1.3,2.3-1.6c0.9-0.4,1.9-0.6,3.1-0.6
		c1,0,1.8,0.1,2.7,0.4c0.9,0.3,1.5,0.7,2.2,1.2c0.6,0.5,1.1,1.2,1.4,1.9s0.6,1.6,0.6,2.7c0,1-0.2,1.8-0.5,2.6
		c-0.3,0.8-0.7,1.4-1.2,2s-1.1,1.2-1.7,1.5c-0.7,0.5-1.3,1-1.9,1.3c-0.7,0.4-1.3,0.8-2,1.3c-0.7,0.5-1.3,0.9-1.8,1.3
		c-0.6,0.5-1.1,1-1.4,1.4s-0.7,1.2-0.8,1.8h11.2v2.3h-14.3c0.1-1.3,0.3-2.4,0.7-3.3c0.4-0.9,0.8-1.7,1.3-2.4s1.2-1.3,1.9-1.8
		c0.7-0.5,1.4-1,2.2-1.4c1-0.6,1.7-1.1,2.4-1.5c0.7-0.5,1.3-1,1.7-1.4c0.5-0.5,0.8-1.1,1.1-1.6c0.3-0.6,0.4-1.3,0.4-2
		c0-0.6-0.1-1.2-0.4-1.6c-0.2-0.5-0.5-0.9-0.9-1.3c-0.4-0.4-0.9-0.6-1.3-0.8c-0.5-0.2-1.1-0.3-1.6-0.3c-0.8,0-1.4,0.2-1.9,0.5
		c-0.6,0.3-1,0.8-1.3,1.3s-0.6,1.1-0.8,1.7c-0.2,0.7-0.2,1.3-0.2,1.9h-2.6C-131,202.3-130.9,201.3-130.6,200.3z M-39.7,240.4v-15.7
		h-5.7v-2.1c0.8,0,1.4-0.1,2.1-0.2c0.7-0.1,1.3-0.3,1.9-0.7c0.6-0.3,1.1-0.8,1.4-1.3c0.4-0.6,0.7-1.3,0.8-2h2v21.9L-39.7,240.4
		L-39.7,240.4z M20.2,289.4c0.3-1,0.8-1.7,1.3-2.4c0.6-0.7,1.3-1.3,2.3-1.6c0.9-0.4,1.9-0.6,3.1-0.6c1,0,1.8,0.1,2.7,0.4
		c0.9,0.3,1.5,0.7,2.2,1.2c0.6,0.5,1.1,1.2,1.4,1.9c0.4,0.8,0.6,1.6,0.6,2.7c0,1-0.2,1.8-0.5,2.6s-0.7,1.4-1.2,2
		c-0.5,0.6-1.1,1.2-1.7,1.5c-0.7,0.5-1.3,1-1.9,1.3s-1.3,0.8-2,1.3c-0.7,0.5-1.3,0.9-1.8,1.3c-0.6,0.5-1.1,1-1.4,1.4
		c-0.4,0.5-0.7,1.2-0.8,1.8h11.2v2.3H19.3c0.1-1.3,0.3-2.4,0.7-3.3c0.4-0.9,0.8-1.7,1.3-2.4c0.6-0.7,1.2-1.3,1.9-1.8
		c0.7-0.5,1.4-1,2.2-1.4c1-0.6,1.7-1.1,2.4-1.5c0.7-0.5,1.3-1,1.7-1.4c0.5-0.5,0.8-1.1,1.1-1.6c0.3-0.6,0.4-1.3,0.4-2
		c0-0.6-0.1-1.2-0.4-1.6c-0.2-0.5-0.5-0.9-0.9-1.3c-0.4-0.4-0.9-0.6-1.3-0.8c-0.5-0.2-1.1-0.3-1.6-0.3c-0.8,0-1.4,0.2-1.9,0.5
		c-0.6,0.3-1,0.8-1.3,1.3c-0.4,0.5-0.6,1.1-0.8,1.7s-0.2,1.3-0.2,1.9H20C19.8,291.3,19.9,290.3,20.2,289.4L20.2,289.4z M49.3,383.5
		h0.9c0.6,0,1.1-0.1,1.5-0.2c0.5-0.1,1-0.4,1.3-0.7c0.4-0.3,0.7-0.7,0.9-1.2c0.2-0.5,0.4-1,0.4-1.5c0-1.2-0.4-2-1.2-2.6
		c-0.8-0.6-1.6-0.9-2.8-0.9c-0.7,0-1.3,0.1-1.8,0.4s-1,0.6-1.3,1.1c-0.4,0.4-0.6,1-0.8,1.5c-0.2,0.6-0.3,1.2-0.3,1.8h-2.6
		c0-1.1,0.2-2,0.5-2.9s0.8-1.6,1.3-2.2c0.6-0.6,1.3-1.1,2.1-1.4c0.9-0.4,1.8-0.5,2.9-0.5c1,0,1.8,0.1,2.6,0.4
		c0.8,0.3,1.5,0.6,2.1,1.1c0.6,0.5,1.1,1.1,1.4,1.8c0.4,0.8,0.5,1.6,0.5,2.6c0,1-0.3,1.8-0.9,2.6c-0.6,0.8-1.3,1.3-2.1,1.7v0.1
		c1.3,0.3,2.3,1,3,1.9c0.7,1,1,2.1,1,3.5c0,1.1-0.2,2-0.6,2.9c-0.4,0.9-1,1.5-1.6,2.1c-0.7,0.6-1.4,1-2.4,1.3
		c-1,0.3-1.9,0.4-2.9,0.4c-1.2,0-2.1-0.2-3-0.5c-0.9-0.3-1.6-0.8-2.3-1.3c-0.7-0.6-1.2-1.3-1.4-2.2c-0.4-0.9-0.5-1.9-0.5-3h2.6
		c0,1.4,0.5,2.6,1.3,3.5c0.8,0.9,1.9,1.3,3.5,1.3c0.7,0,1.3-0.1,1.8-0.3c0.6-0.2,1.1-0.5,1.5-0.9s0.8-0.8,1.1-1.3
		c0.3-0.6,0.4-1.2,0.4-1.7c0-0.7-0.1-1.3-0.4-1.8c-0.3-0.6-0.6-1-1-1.3s-0.9-0.7-1.4-0.8c-0.6-0.1-1.2-0.3-1.8-0.3
		c-0.6,0-1.1,0-1.5,0.1L49.3,383.5C49.1,383.5,49.2,383.5,49.3,383.5L49.3,383.5z M32.3,479.4v2.3h-3v5.1h-2.5v-5.1h-9.6v-2.5
		l9.9-14.3h2.1v14.4H32.3L32.3,479.4z M26.9,468.7l-7.3,10.7h7.3V468.7z M-44,530.4l-1.2,6.3l0.1,0.1c0.5-0.6,1.1-1,1.8-1.2
		c0.8-0.3,1.5-0.4,2.2-0.4c1,0,1.9,0.2,2.7,0.5c0.9,0.3,1.6,0.8,2.2,1.4c0.7,0.7,1.2,1.4,1.5,2.3s0.6,2,0.6,3.3c0,1-0.2,1.8-0.5,2.7
		s-0.8,1.6-1.4,2.3c-0.7,0.7-1.4,1.3-2.4,1.6s-2,0.6-3.4,0.6c-1,0-1.8-0.1-2.7-0.4c-0.9-0.3-1.5-0.7-2.2-1.2
		c-0.7-0.5-1.2-1.2-1.5-1.9c-0.4-0.8-0.6-1.6-0.6-2.7h2.6c0,0.6,0.2,1.1,0.4,1.5s0.6,0.9,1,1.3c0.4,0.4,0.9,0.7,1.4,0.9
		c0.6,0.2,1.2,0.3,1.8,0.3c0.6,0,1.3-0.1,1.7-0.3c0.6-0.2,1.1-0.6,1.4-1c0.4-0.4,0.8-1,1-1.6c0.3-0.7,0.4-1.4,0.4-2.3
		c0-0.7-0.1-1.3-0.4-2c-0.3-0.7-0.6-1.2-1-1.5c-0.4-0.4-1-0.8-1.5-1.1c-0.6-0.3-1.3-0.4-2-0.4c-0.9,0-1.6,0.2-2.3,0.6
		c-0.7,0.4-1.3,0.9-1.7,1.5l-2.2-0.1l2-11.4h10.8v2.3L-44,530.4L-44,530.4z M-127.7,553.4c-0.7-0.6-1.4-0.9-2.5-0.9
		c-1.2,0-2,0.3-2.7,0.8s-1.3,1.3-1.5,2c-0.3,0.8-0.7,1.7-0.8,2.7s-0.2,1.8-0.3,2.7l0.1,0.1c0.6-1,1.3-1.7,2.3-2.2
		c0.9-0.5,1.9-0.7,3.2-0.7c1.1,0,2,0.2,2.8,0.6c0.9,0.4,1.5,0.9,2.1,1.5c0.6,0.7,1,1.3,1.3,2.2c0.3,0.9,0.5,1.8,0.5,2.8
		c0,0.8-0.1,1.6-0.4,2.5c-0.3,0.9-0.7,1.6-1.3,2.3c-0.6,0.7-1.3,1.3-2.2,1.7c-1,0.5-2.1,0.7-3.5,0.7c-1.6,0-2.9-0.3-3.9-1
		c-1.1-0.7-1.7-1.5-2.3-2.5c-0.6-1.1-0.9-2.1-1.1-3.4c-0.2-1.3-0.3-2.4-0.3-3.6c0-1.5,0.1-3,0.4-4.3c0.3-1.4,0.7-2.7,1.3-3.8
		c0.6-1.1,1.4-1.9,2.5-2.6c1.1-0.7,2.3-1,3.9-1c1.8,0,3.3,0.5,4.3,1.4s1.6,2.3,1.8,4.1h-2.6C-126.7,554.7-127.1,553.9-127.7,553.4
		L-127.7,553.4z M-132.5,560.6c-0.6,0.3-1.1,0.6-1.4,1.1c-0.4,0.5-0.7,1-0.9,1.5c-0.2,0.6-0.3,1.3-0.3,1.9c0,0.7,0.1,1.3,0.3,1.9
		c0.2,0.6,0.5,1.2,0.9,1.5c0.4,0.4,0.9,0.8,1.4,1.1c0.6,0.3,1.3,0.4,1.9,0.4c0.7,0,1.3-0.1,1.9-0.4c0.6-0.3,1-0.6,1.3-1.1
		s0.7-1,0.9-1.5c0.2-0.6,0.3-1.2,0.3-1.8c0-0.7-0.1-1.3-0.3-1.9c-0.2-0.6-0.5-1.2-0.8-1.5c-0.4-0.5-0.9-0.8-1.3-1.1
		c-0.5-0.3-1.2-0.4-1.9-0.4C-131.3,560.2-131.9,560.4-132.5,560.6L-132.5,560.6z M-217.1,534c-1,1.5-1.8,3.1-2.6,4.8
		s-1.3,3.5-1.8,5.3c-0.5,1.8-0.8,3.6-0.9,5.3h-2.9c0.1-1.8,0.4-3.7,0.9-5.4c0.5-1.7,1.1-3.5,1.8-5c0.8-1.5,1.6-3.2,2.6-4.6
		c1-1.4,2-2.8,3.2-3.9H-228v-2.6h14.2v2.2C-215,531.2-216.1,532.5-217.1,534L-217.1,534z M-294.2,466.9c0.4-0.7,0.9-1.3,1.4-1.7
		c0.6-0.5,1.3-0.9,2-1.1c0.8-0.3,1.5-0.4,2.4-0.4c1.2,0,2.2,0.2,3.1,0.5c0.9,0.3,1.5,0.8,2,1.3c0.5,0.5,0.9,1.2,1.2,1.8
		c0.3,0.7,0.4,1.3,0.4,2c0,1-0.3,1.9-0.8,2.7c-0.5,0.8-1.3,1.4-2.2,1.8c1.3,0.4,2.3,1.1,2.9,2c0.6,1,1,2.1,1,3.5
		c0,1.1-0.2,2-0.6,2.8c-0.4,0.9-0.9,1.5-1.5,2.1c-0.7,0.6-1.4,1-2.3,1.3c-0.9,0.3-1.8,0.4-2.8,0.4c-1.1,0-2-0.1-2.9-0.4
		c-0.9-0.3-1.7-0.7-2.3-1.3c-0.6-0.6-1.2-1.3-1.5-2.1c-0.4-0.9-0.6-1.8-0.6-2.9c0-1.3,0.3-2.4,1-3.4c0.7-1,1.6-1.6,2.8-2.1
		c-1-0.4-1.6-1-2.2-1.8c-0.6-0.9-0.9-1.7-0.9-2.7C-294.8,468.4-294.6,467.6-294.2,466.9L-294.2,466.9z M-291.4,482.5
		c0.9,0.8,2,1.2,3.4,1.2c0.7,0,1.3-0.1,1.8-0.3c0.6-0.2,1.1-0.5,1.4-0.9c0.4-0.4,0.7-0.9,1-1.3c0.3-0.5,0.3-1.1,0.3-1.7
		c0-0.6-0.1-1.2-0.4-1.6c-0.3-0.5-0.6-1-1-1.3c-0.4-0.4-0.9-0.7-1.4-0.9c-0.6-0.2-1.2-0.3-1.7-0.3c-0.7,0-1.3,0.1-1.8,0.3
		c-0.6,0.2-1.1,0.5-1.4,0.9c-0.4,0.4-0.8,0.8-1,1.3c-0.2,0.5-0.4,1.1-0.4,1.7C-292.7,480.7-292.3,481.7-291.4,482.5L-291.4,482.5z
		 M-291.7,471c0.2,0.5,0.5,0.8,0.9,1.1c0.4,0.3,0.8,0.5,1.3,0.7c0.5,0.1,1,0.2,1.5,0.2c1.1,0,1.9-0.3,2.6-1c0.7-0.6,1.1-1.4,1.1-2.6
		s-0.4-1.9-1.1-2.5s-1.5-0.9-2.6-0.9c-0.5,0-1,0.1-1.4,0.2s-0.9,0.4-1.3,0.7c-0.4,0.3-0.6,0.7-0.8,1.1s-0.3,0.9-0.3,1.4
		C-292,470-291.9,470.5-291.7,471z M-313.6,392.9c0.8,0.6,1.6,0.9,2.7,0.9c1.6,0,2.8-0.7,3.6-2.1c0.8-1.4,1.3-3.5,1.3-6.4l-0.1-0.1
		c-0.5,1-1.2,1.6-2.1,2.2c-0.9,0.6-1.9,0.8-3,0.8c-1.2,0-2.1-0.2-3-0.6s-1.5-0.9-2.2-1.5c-0.6-0.7-1.1-1.4-1.3-2.3s-0.5-1.9-0.5-3
		c0-1.1,0.2-2,0.5-2.9c0.4-0.9,0.9-1.6,1.4-2.2c0.7-0.7,1.4-1.2,2.3-1.4c0.9-0.4,1.8-0.5,2.9-0.5c1.1,0,2,0.2,2.9,0.5
		c0.9,0.3,1.7,0.9,2.4,1.6c0.7,0.8,1.3,1.8,1.6,3.2c0.4,1.3,0.6,3.1,0.6,5.1c0,3.8-0.6,6.6-1.8,8.7c-1.2,2-3.1,3.1-5.8,3.1
		c-1.8,0-3.4-0.5-4.5-1.3s-1.9-2.3-2-4.2h2.6C-314.8,391.4-314.3,392.3-313.6,392.9z M-306.7,379.2c-0.2-0.6-0.5-1.2-0.9-1.5
		c-0.4-0.4-0.9-0.9-1.4-1.1c-0.6-0.3-1.2-0.4-1.9-0.4c-0.8,0-1.4,0.1-2,0.4c-0.6,0.3-1,0.7-1.3,1.2c-0.4,0.5-0.6,1.1-0.8,1.6
		s-0.2,1.3-0.2,1.9c0,0.6,0.1,1.2,0.3,1.7c0.2,0.6,0.5,1.1,0.9,1.4c0.4,0.4,0.9,0.8,1.3,1.1c0.5,0.3,1.1,0.4,1.7,0.4
		s1.3-0.1,1.8-0.4c0.6-0.3,1.1-0.6,1.4-1.1c0.4-0.5,0.7-1,0.9-1.5c0.2-0.6,0.3-1.2,0.3-1.8C-306.4,380.4-306.5,379.8-306.7,379.2z
		 M-292.2,306.3v-15.6h-5.6v-2.1c0.8,0,1.4-0.1,2.1-0.2c0.7-0.1,1.3-0.3,1.9-0.7c0.6-0.3,1.1-0.8,1.4-1.3c0.4-0.6,0.7-1.3,0.8-2h2
		v21.9H-292.2z M-284.2,293.1c0-0.9,0.1-1.7,0.3-2.5c0.2-0.9,0.4-1.6,0.7-2.3c0.3-0.8,0.8-1.3,1.3-1.9c0.6-0.6,1.3-1,2-1.3
		c0.8-0.4,1.8-0.5,2.9-0.5c1.2,0,2.1,0.2,2.9,0.5c0.8,0.3,1.4,0.8,2,1.3c0.6,0.6,1,1.2,1.3,1.9s0.6,1.5,0.7,2.3
		c0.2,0.9,0.3,1.6,0.3,2.5c0,0.9,0.1,1.7,0.1,2.5c0,0.8,0,1.6-0.1,2.5c-0.1,0.9-0.1,1.7-0.3,2.5c-0.2,0.9-0.4,1.6-0.7,2.3
		s-0.8,1.3-1.3,1.9c-0.6,0.6-1.2,1-2,1.3c-0.9,0.4-1.7,0.5-2.9,0.5s-2.1-0.2-2.9-0.5c-0.8-0.3-1.4-0.8-2-1.3c-0.6-0.6-1-1.2-1.3-1.9
		c-0.3-0.8-0.6-1.5-0.7-2.3c-0.2-0.9-0.3-1.6-0.3-2.5s-0.1-1.7-0.1-2.5C-284.2,294.8-284.2,293.9-284.2,293.1z M-281.4,298.3
		c0.1,1.1,0.2,1.9,0.5,2.9c0.3,0.9,0.8,1.6,1.3,2.3c0.6,0.7,1.4,1,2.6,1s1.9-0.3,2.6-1s1.1-1.3,1.3-2.3c0.3-0.9,0.5-1.8,0.5-2.9
		c0.1-1.1,0.1-1.9,0.1-2.8v-1.7c0-0.7-0.1-1.3-0.2-1.9c-0.1-0.7-0.2-1.3-0.4-1.9c-0.2-0.6-0.4-1.2-0.8-1.6c-0.4-0.5-0.8-0.9-1.3-1.2
		c-0.5-0.3-1.2-0.4-1.9-0.4s-1.3,0.1-1.9,0.4c-0.5,0.3-1,0.7-1.3,1.2c-0.4,0.5-0.6,1-0.8,1.6c-0.2,0.6-0.3,1.3-0.4,1.9
		c-0.1,0.7-0.1,1.3-0.2,1.9v1.7C-281.4,296.3-281.4,297.3-281.4,298.3z"/>
	<g>
		<path class="st1" d="M-227.8,243.4v-15.7h-5.7v-2.1c0.8,0,1.4-0.1,2.1-0.2s1.3-0.3,1.9-0.7c0.6-0.3,1.1-0.8,1.4-1.3
			c0.4-0.6,0.7-1.3,0.8-2h2v21.9L-227.8,243.4L-227.8,243.4z M-212.8,243.4v-15.7h-5.7v-2.1c0.8,0,1.4-0.1,2.1-0.2s1.3-0.3,1.9-0.7
			c0.6-0.3,1.1-0.8,1.4-1.3c0.4-0.6,0.7-1.3,0.8-2h2v21.9L-212.8,243.4L-212.8,243.4z"/>
	</g>
</g>
<g>
	<path class="st2" d="M-179.9,413c14,0,38.5-7,48.9-28c10.5,21,35,28,48.9,28c45.4,0,52.4-31.5,52.4-31.5c-3.5,3.5-10.5,7-21,7
		c-17.5,0-21-31.5-45.4-31.5c-24.5,0-35,17.5-35,17.5s-10.5-17.5-35-17.5c-24.5,0-28,31.5-45.4,31.5c-10.5,0-17.5-3.5-21-7
		C-232.4,381.5-225.4,413-179.9,413L-179.9,413z M-179.9,413"/>
</g>
</svg>
